<?xml version="1.0" encoding="utf-8"?>
<!-- Generator: Adobe Illustrator 22.0.1, SVG Export Plug-In . SVG Version: 6.00 Build 0)  -->
<svg version="1.1" id="Layer_1" xmlns="http://www.w3.org/2000/svg" xmlns:xlink="http://www.w3.org/1999/xlink" x="0px" y="0px"
	 viewBox="0 0 200 50" style="enable-background:new 0 0 200 50;" xml:space="preserve">
<style type="text/css">
	.st0{fill:#2BBCCC;}
	.st1{fill:#8BC442;}
</style>
<path class="st0" d="M191.6,40.5l0.5-2.3h-0.9l0.1-0.3h2.2l-0.1,0.3h-0.9l-0.5,2.3H191.6z M195.4,40.5H195l0.5-2.2l-1,1.5h-0.3
	l-0.3-1.5l-0.5,2.2H193l0.6-2.5h0.5l0.3,1.4l1-1.4h0.5L195.4,40.5z"/>
<path class="st0" d="M69.9,41.8h-4.9l2.4-15.7h4.9L69.9,41.8z M72.8,23.8h-5.2l0.6-3.8h5.2L72.8,23.8z M87.7,41.8h-5l1.2-7.8
	c0.1-0.6,0.2-1.3,0.3-1.9s0-1.1-0.1-1.4c-0.1-0.3-0.3-0.6-0.6-0.8c-0.3-0.2-0.7-0.3-1.2-0.3c-0.4,0-0.9,0.1-1.3,0.3
	c-0.4,0.2-1,0.3-1.5,0.7l-1.7,11.1h-4.9L75.2,26h4.9l-0.3,1.7c1-0.7,1.8-1.2,2.6-1.6c0.9-0.3,1.7-0.6,2.7-0.6c1.6,0,2.8,0.5,3.5,1.5
	c0.7,1,0.9,2.5,0.6,4.4L87.7,41.8z M104.9,41.8H100l0.3-1.6c-0.3,0.3-0.8,0.5-1.2,0.9c-0.4,0.3-0.9,0.5-1.2,0.7
	c-0.4,0.2-0.9,0.3-1.2,0.4c-0.4,0.1-0.9,0.2-1.4,0.2c-1.8,0-3.1-0.8-4-2.3c-0.9-1.5-1-3.5-0.7-5.9c0.3-1.4,0.6-2.5,1.1-3.6
	c0.5-1,1.1-1.9,1.9-2.6c0.7-0.7,1.5-1.2,2.3-1.6s1.8-0.6,2.7-0.6s1.5,0.1,2,0.3c0.5,0.2,1.1,0.4,1.7,0.8l1-6.7h4.9L104.9,41.8z
	 M100.7,37.4l1.2-7.7c-0.3-0.1-0.5-0.3-1-0.3c-0.3-0.1-0.7-0.1-1-0.1c-1.2,0-2.2,0.4-2.9,1.2c-0.7,0.8-1.2,2-1.5,3.5
	c-0.3,1.6-0.2,2.7,0.2,3.4c0.3,0.7,1.1,1,2.2,1c0.4,0,0.9-0.1,1.4-0.3C99.8,37.9,100.2,37.7,100.7,37.4 M115.9,42.2
	c-3,0-5.2-0.7-6.6-2.1s-1.9-3.5-1.5-6.1c0.4-2.6,1.5-4.6,3.2-6.2c1.7-1.6,3.9-2.3,6.6-2.3c2.4,0,4.2,0.6,5.2,1.9
	c1,1.3,1.4,3.1,1,5.6l-0.3,1.7h-10.8c-0.1,0.7,0,1.3,0.2,1.8c0.2,0.5,0.4,0.9,0.9,1.1c0.3,0.3,0.9,0.5,1.4,0.6
	c0.5,0.2,1.1,0.2,1.8,0.2c0.6,0,1.1-0.1,1.7-0.2s1.1-0.3,1.6-0.5c0.4-0.2,0.9-0.3,1.2-0.6c0.3-0.2,0.7-0.3,1-0.5h0.5l-0.6,4.1
	c-0.4,0.2-0.9,0.3-1.2,0.4c-0.3,0.2-0.9,0.3-1.5,0.4c-0.5,0.2-1.1,0.3-1.7,0.3C117.5,42.1,116.8,42.2,115.9,42.2 M119.2,31.9
	c0.2-1,0-1.8-0.3-2.3c-0.3-0.5-1-0.8-2-0.8s-1.7,0.3-2.4,0.9c-0.6,0.5-1,1.4-1.3,2.3L119.2,31.9L119.2,31.9z M134.5,36.8l1.1-7.1
	c-0.3-0.1-0.5-0.2-0.9-0.3c-0.3-0.1-0.7-0.1-1-0.1c-1.2,0-2.2,0.3-2.9,1.1c-0.7,0.8-1.2,1.8-1.4,3.2c-0.1,0.7-0.2,1.2-0.2,1.7
	c0,0.4,0.1,0.9,0.3,1.2c0.2,0.3,0.4,0.6,0.8,0.8s0.9,0.3,1.4,0.3c0.4,0,0.9-0.1,1.4-0.3C133.6,37.3,134.1,37.1,134.5,36.8 M139,39.9
	c-0.3,1.5-0.6,2.7-1.2,3.7c-0.6,1-1.3,1.8-2.1,2.3c-0.9,0.6-1.8,1-2.9,1.2c-1,0.3-2.3,0.3-3.5,0.3c-1,0-2.1-0.1-2.9-0.2
	c-1-0.2-1.7-0.3-2.4-0.4l0.6-3.9h0.6c0.3,0.1,0.5,0.2,0.9,0.3c0.3,0.1,0.6,0.3,1,0.3c0.4,0.1,0.8,0.2,1.1,0.3
	c0.3,0.1,0.8,0.1,1.2,0.1c0.9,0,1.6-0.1,2.2-0.3c0.6-0.2,1-0.4,1.4-0.7c0.3-0.3,0.6-0.7,0.8-1.1c0.2-0.4,0.3-1,0.4-1.6l0.1-0.3
	c-0.6,0.5-1.4,0.9-2.1,1.1c-0.8,0.3-1.6,0.4-2.3,0.4c-2.1,0-3.6-0.7-4.4-2c-1-1.3-1.1-3.3-0.7-6.1c0.2-1.2,0.5-2.3,1-3.3
	c0.5-1,1.1-1.8,1.8-2.5c0.7-0.7,1.5-1.2,2.3-1.6c0.9-0.3,1.7-0.5,2.7-0.5c0.8,0,1.6,0.1,2.2,0.3c0.6,0.2,1.1,0.5,1.6,0.8l0.3-0.7
	h4.8L139,39.9z M149.7,42.2c-3,0-5.2-0.7-6.6-2.1s-1.8-3.5-1.5-6.1c0.4-2.6,1.5-4.6,3.2-6.2s4-2.3,6.6-2.3c2.4,0,4.2,0.6,5.2,1.9
	c1,1.3,1.4,3.1,1,5.6l-0.3,1.7h-10.8c-0.1,0.7,0,1.3,0.2,1.8c0.2,0.5,0.4,0.9,0.9,1.1c0.3,0.3,0.9,0.5,1.4,0.6
	c0.5,0.2,1.1,0.2,1.8,0.2c0.6,0,1.1-0.1,1.7-0.2c0.6-0.1,1.1-0.3,1.6-0.5c0.4-0.2,0.9-0.3,1.2-0.6c0.3-0.2,0.7-0.3,1-0.5h0.5
	l-0.6,4.1c-0.4,0.2-0.9,0.3-1.2,0.4c-0.3,0.2-0.9,0.3-1.5,0.4c-0.5,0.2-1.1,0.3-1.7,0.3C151.2,42.1,150.5,42.2,149.7,42.2 M153,31.9
	c0.1-1,0-1.8-0.3-2.3c-0.3-0.5-1-0.8-2-0.8c-1,0-1.7,0.3-2.4,0.9c-0.6,0.5-1,1.4-1.3,2.3L153,31.9L153,31.9z M172.9,41.8h-5l1.2-7.8
	c0.1-0.6,0.2-1.3,0.3-1.9s0-1.1-0.1-1.4c-0.1-0.3-0.3-0.6-0.6-0.8c-0.3-0.2-0.7-0.3-1.2-0.3c-0.4,0-0.9,0.1-1.3,0.3
	c-0.4,0.2-1,0.3-1.5,0.7l-1.7,11.1H158l2.4-15.7h4.9l-0.3,1.7c1-0.7,1.8-1.2,2.6-1.6c0.9-0.3,1.7-0.6,2.7-0.6c1.6,0,2.8,0.5,3.5,1.5
	c0.7,1,0.9,2.5,0.6,4.4L172.9,41.8z M183.8,42.2c-3,0-5.2-0.7-6.6-2.1s-1.8-3.5-1.5-6.1c0.4-2.6,1.5-4.6,3.2-6.2s4-2.3,6.6-2.3
	c2.4,0,4.2,0.6,5.2,1.9c1,1.3,1.4,3.1,1,5.6l-0.3,1.7h-10.8c-0.1,0.7,0,1.3,0.2,1.8c0.2,0.5,0.5,0.9,0.9,1.1
	c0.3,0.3,0.9,0.5,1.4,0.6c0.5,0.2,1.1,0.2,1.8,0.2c0.6,0,1.1-0.1,1.7-0.2s1.1-0.3,1.6-0.5c0.4-0.2,0.9-0.3,1.2-0.6
	c0.3-0.2,0.7-0.3,1-0.5h0.5l-0.6,4.1c-0.4,0.2-0.9,0.3-1.2,0.4c-0.3,0.2-0.9,0.3-1.5,0.4c-0.5,0.2-1.1,0.3-1.7,0.3
	C185.3,42.1,184.5,42.2,183.8,42.2 M187.1,31.9c0.2-1,0-1.8-0.3-2.3c-0.3-0.5-1-0.8-2-0.8c-1,0-1.7,0.3-2.4,0.9
	c-0.6,0.5-1,1.4-1.3,2.3L187.1,31.9L187.1,31.9z"/>
<polygon class="st1" points="22.4,22 23.7,14.9 38.1,14.9 32.9,42 23.9,42 27.5,22 "/>
<path class="st1" d="M34.2,2.6c2.5,0,4.5,2,4.5,4.5s-2,4.5-4.5,4.5s-4.5-2.1-4.5-4.5S31.7,2.6,34.2,2.6"/>
<path class="st0" d="M30.9,37.2C8.7,32-1.5,16.4,1.6,10.3c2.9-6,12.1-7.9,25.8-4.5C19.8,4,7.9,5.2,6.3,12.1
	C3.6,20.5,17.2,33.9,30.9,37.2"/>
<path class="st0" d="M38.1,9.4c7.3,3.5,14.3,8.5,17.6,15.2c2.2,4.7,1.8,10.8-3.9,13.3c-4.2,1.8-9.5,1.8-14.8,1.3
	c10,2.3,17.4,2.1,21.9-1.5c4.2-4.2,3.6-9.5-0.3-14.7C53,16.1,44.6,11.5,38.1,9.4"/>
</svg>
